<?xml version="1.0" encoding="UTF-8" standalone="no"?>
<svg
   xmlns:dc="http://purl.org/dc/elements/1.1/"
   xmlns:cc="http://creativecommons.org/ns#"
   xmlns:rdf="http://www.w3.org/1999/02/22-rdf-syntax-ns#"
   xmlns:svg="http://www.w3.org/2000/svg"
   xmlns="http://www.w3.org/2000/svg"
   xmlns:sodipodi="http://sodipodi.sourceforge.net/DTD/sodipodi-0.dtd"
   xmlns:inkscape="http://www.inkscape.org/namespaces/inkscape"
   fill="#000000"
   height="48"
   viewBox="0 0 24 24"
   width="48"
   version="1.1"
   id="svg6"
   sodipodi:docname="icon_entwurf.svg"
   inkscape:version="0.92.2 (5c3e80d, 2017-08-06)">
  <metadata
     id="metadata12">
    <rdf:RDF>
      <cc:Work
         rdf:about="">
        <dc:format>image/svg+xml</dc:format>
        <dc:type
           rdf:resource="http://purl.org/dc/dcmitype/StillImage" />
        <dc:title></dc:title>
      </cc:Work>
    </rdf:RDF>
  </metadata>
  <defs
     id="defs10" />
  <sodipodi:namedview
     pagecolor="#ffffff"
     bordercolor="#666666"
     borderopacity="1"
     objecttolerance="10"
     gridtolerance="10"
     guidetolerance="10"
     inkscape:pageopacity="0"
     inkscape:pageshadow="2"
     inkscape:window-width="1920"
     inkscape:window-height="1017"
     id="namedview8"
     showgrid="true"
     inkscape:zoom="6.9532167"
     inkscape:cx="35.51348"
     inkscape:cy="2.8385951"
     inkscape:window-x="-8"
     inkscape:window-y="32"
     inkscape:window-maximized="1"
     inkscape:current-layer="svg6">
    <inkscape:grid
       type="xygrid"
       id="grid822" />
  </sodipodi:namedview>
  <path
     d="M 19,4 H 18 V 2 H 16 V 4 H 8 V 2 H 6 V 4 H 5 C 3.89,4 3.01,4.9 3.01,6 L 3,20 c 0,1.1 0.89,2 2,2 h 14 c 1.1,0 2,-0.9 2,-2 V 6 C 21,4.9 20.1,4 19,4 Z m 0,16 H 5 V 9 h 14 z"
     id="path2"
     inkscape:connector-curvature="0"
     sodipodi:nodetypes="sccccccccsccsssssccccc" />
  <path
     d="M0 0h24v24H0z"
     fill="none"
     id="path4" />
  <path
     inkscape:connector-curvature="0"
     d="m 13.5,17.75 c -1.255,0 -2.34,-0.71 -2.88,-1.75 h 2.88 v -1 h -3.21 c -0.025,-0.165 -0.04,-0.33 -0.04,-0.5 0,-0.17 0.015,-0.335 0.04,-0.5 h 3.21 v -1 h -2.88 c 0.54,-1.04 1.63,-1.75 2.88,-1.75 0.805,0 1.545,0.295 2.115,0.785 L 16.5,11.15 C 15.705,10.435 14.65,10 13.5,10 11.54,10 9.88,11.255 9.26,13 H 7.5 v 1 H 9.03 C 9.01,14.165 9,14.33 9,14.5 9,14.67 9.01,14.835 9.03,15 H 7.5 v 1 h 1.76 c 0.62,1.745 2.28,3 4.24,3 1.155,0 2.205,-0.435 3,-1.15 l -0.89,-0.885 c -0.565,0.49 -1.3,0.785 -2.11,0.785 z"
     id="path2-5"
     style="stroke-width:0.5" />
</svg>
